<svg width="107" height="32" viewBox="0 0 107 32" fill="none" xmlns="http://www.w3.org/2000/svg">
<path fill-rule="evenodd" clip-rule="evenodd" d="M47.6075 11.8329L52.6019 11.3079L52.2714 12.5696L48.574 12.9582L44.8594 27.1378L39.3149 27.7206L39.6454 26.4589L43.8928 26.0125L47.6075 11.8329ZM84.665 21.7272L90.8393 8.4796L92.0414 8.60395L85.3887 22.878L76.72 23.7891L77.0505 22.5275L84.665 21.7272ZM103.565 12.9885C104.096 10.9415 103.919 9.63315 103.208 8.90161L104.329 7.88003C105.328 8.90747 105.444 10.6294 104.854 12.8818L104.846 12.9117L103.821 15.7892L94.8974 16.7272L95.2279 15.4655L102.972 14.6516L103.565 12.9885ZM9.65428 19.3082L11.1776 19.1481L13.6557 29.1906L18.101 28.7234L20.3082 20.2979L21.6053 20.1616L19.0675 29.8487L12.5107 30.5378L10.3101 21.6197L7.84534 31.0282L1.65233 31.6791L4.19007 21.992L5.48713 21.8557L3.2799 30.2811L6.87879 29.9029L9.65428 19.3082ZM59.7082 15.4555C60.2408 15.2504 60.7352 15.1007 61.1868 15.0135L60.9808 16.2565C60.6436 16.3216 60.2477 16.4388 59.7887 16.6155C59.3162 16.7975 58.8582 16.9939 58.4145 17.2046C58.1391 17.3397 57.8831 17.466 57.6465 17.5837L55.4348 26.0263L49.4343 26.657L51.3622 19.2975L52.6593 19.1612L51.0619 25.259L54.4682 24.901L56.5595 16.918L56.9766 16.7084C57.3292 16.5312 57.7319 16.3316 58.1841 16.1098L58.1896 16.1071L58.195 16.1045C58.6866 15.8708 59.1911 15.6546 59.7082 15.4555ZM15.5766 22.5925L15.1365 22.6387L15.4671 21.3771L15.9071 21.3308L15.5766 22.5925ZM91.2752 15.2976C90.8817 16.7996 90.7633 17.9782 90.8864 18.8598C91.0224 19.7035 91.4396 20.2819 92.1389 20.6225C92.8561 20.9517 93.9616 21.0623 95.5164 20.8989C96.2284 20.824 96.9879 20.7105 97.7955 20.5578C98.6094 20.4038 99.3899 20.2364 100.137 20.0557C100.625 19.9378 101.056 19.8297 101.432 19.7314L102.005 17.2093L103.313 17.0292L102.494 20.6317L101.923 20.791C101.41 20.9337 100.769 21.0979 100.003 21.2832C99.2274 21.4707 98.421 21.6435 97.5838 21.8019C96.7403 21.9614 95.9409 22.0812 95.1859 22.1605C93.5161 22.336 92.1818 22.2355 91.2441 21.8033L91.2404 21.8016L91.2367 21.7998C90.294 21.3424 89.7346 20.5512 89.5592 19.454L89.5586 19.4498L89.558 19.4455C89.4079 18.3791 89.5592 17.0331 89.9781 15.434L91.2752 15.2976ZM22.2123 24.95C21.8446 26.3538 21.9676 27.2233 22.4169 27.7105C22.8739 28.2062 23.7591 28.4409 25.228 28.2865C25.7543 28.2312 26.2839 28.1273 26.8175 27.9752C27.3699 27.8177 27.8775 27.6495 28.3414 27.4714C28.8264 27.269 29.2041 27.0989 29.4814 26.9604L29.9682 26.7171L30.1985 27.0305C30.2652 27.1213 30.4169 27.2461 30.7035 27.3905C30.9301 27.4868 31.265 27.5331 31.7413 27.4982L31.7732 27.4958L31.8041 27.4966C32.006 27.5018 32.3381 27.4704 32.8267 27.3854L32.8388 27.3833L32.8509 27.3816C33.3338 27.3141 33.7914 27.2326 34.2241 27.1375L34.057 28.3725C33.5852 28.4762 33.093 28.5638 32.5807 28.6357C32.0823 28.7219 31.6599 28.7703 31.337 28.7658C30.742 28.8064 30.2249 28.7534 29.8185 28.5759L29.8086 28.5715L29.799 28.5667C29.608 28.4712 29.4356 28.3682 29.2913 28.2551C29.0452 28.3676 28.7668 28.4884 28.4577 28.6173L28.4458 28.6223L28.4338 28.6269C27.9093 28.8288 27.347 29.0148 26.7478 29.1856C26.125 29.3632 25.5081 29.4839 24.8975 29.5481C23.2491 29.7214 21.9924 29.4874 21.283 28.7181C20.5657 27.9403 20.498 26.6791 20.9153 25.0864L22.2123 24.95ZM61.2678 20.8451C60.9 22.2489 61.0231 23.1184 61.4723 23.6056C61.9294 24.1013 62.8146 24.336 64.2834 24.1816C64.8098 24.1263 65.3394 24.0225 65.8729 23.8703C66.4253 23.7128 66.933 23.5446 67.3969 23.3665C67.8818 23.1641 68.2596 22.994 68.5368 22.8555L69.0237 22.6122L69.254 22.9256C69.3207 23.0164 69.4724 23.1412 69.759 23.2856C69.9856 23.3819 70.3204 23.4282 70.7968 23.3933L70.8287 23.3909L70.8595 23.3917C71.0615 23.3969 71.3935 23.3655 71.8821 23.2805L71.8943 23.2784L71.9064 23.2767C72.3892 23.2092 72.8469 23.1277 73.2796 23.0327L73.1125 24.2676C72.6406 24.3713 72.1484 24.4589 71.6361 24.5308C71.1377 24.617 70.7154 24.6654 70.3924 24.6609C69.7974 24.7015 69.2803 24.6485 68.874 24.471L68.8641 24.4666L68.8545 24.4619C68.6634 24.3663 68.491 24.2633 68.3468 24.1502C68.1006 24.2627 67.8223 24.3835 67.5132 24.5124L67.5012 24.5174L67.4893 24.522C66.9647 24.7239 66.4024 24.9099 65.8032 25.0807C65.1805 25.2583 64.5635 25.379 63.9529 25.4432C62.3045 25.6165 61.0478 25.3825 60.3384 24.6132C59.6212 23.8354 59.5534 22.5742 59.9707 20.9815L61.2678 20.8451Z" fill="#300219"/>
<path d="M0.0841366 28.5978L4.8291 10.4854L10.3302 9.90717L12.9198 19.6257L13.3599 19.5794L16.0513 9.30585L20.9472 8.79127L16.2023 26.9038L10.7012 27.4819L8.22317 17.4395L7.75558 17.4887L4.98009 28.0833L0.0841366 28.5978Z" fill="#F4F6FF"/>
<path d="M22.6808 26.535C21.1221 26.6989 20.0512 26.4645 19.4679 25.832C18.8847 25.1995 18.7893 24.1342 19.1818 22.6359C19.4622 21.5658 19.8788 20.7241 20.4317 20.111C21.003 19.4959 21.7133 19.031 22.5625 18.7162C23.4117 18.4015 24.3934 18.1596 25.5077 17.9904L28.3348 17.5112L28.489 16.9226C28.6058 16.4767 28.5409 16.1799 28.2942 16.0324C28.0659 15.883 27.695 15.8352 27.1816 15.8892C26.6315 15.947 26.0033 16.0304 25.2972 16.1393C24.591 16.2482 23.9009 16.3641 23.2267 16.487C22.5526 16.6099 21.961 16.7241 21.4518 16.8296L22.1484 13.6604C22.6945 13.4815 23.3323 13.2931 24.0618 13.095C24.8097 12.895 25.578 12.7188 26.3669 12.5665C27.1604 12.3964 27.8964 12.2757 28.5748 12.2044C29.8034 12.0753 30.8227 12.0982 31.6328 12.2732C32.4612 12.4463 33.0182 12.8388 33.3038 13.4505C33.6076 14.0603 33.603 14.9628 33.29 16.1578L31.8041 21.8296C31.8171 21.9844 31.9012 22.1056 32.0566 22.1934C32.2302 22.2792 32.4224 22.3284 32.6331 22.3409L31.7586 25.3728C31.3045 25.4726 30.8276 25.5574 30.3278 25.6272C29.8233 25.7149 29.4383 25.7554 29.1726 25.7487C28.6271 25.7886 28.1944 25.7387 27.8744 25.5989C27.5591 25.4413 27.3422 25.2819 27.2239 25.1209C26.9162 25.2747 26.512 25.4559 26.0116 25.6646C25.5158 25.8555 24.9788 26.0333 24.4006 26.1982C23.8225 26.363 23.2492 26.4753 22.6808 26.535ZM24.7461 23.1438C25.0211 23.1149 25.294 23.0602 25.5648 22.9798C25.8585 22.8795 26.1362 22.7723 26.398 22.658C26.6781 22.5419 26.9008 22.4404 27.0662 22.3536L27.6409 20.1598L25.584 20.5581C25.1345 20.64 24.7694 20.8085 24.4886 21.0635C24.2309 21.2987 24.0506 21.6125 23.9478 22.0049C23.845 22.3973 23.8549 22.6998 23.9775 22.9124C24.1048 23.1072 24.361 23.1843 24.7461 23.1438Z" fill="#F4F6FF"/>
<path d="M37.0982 24.7075L40.8128 10.5279L36.302 11.002L37.3323 7.06913L51.0849 5.62367L50.0546 9.55651L45.7088 10.0133L41.9941 24.1929L37.0982 24.7075Z" fill="#F4F6FF"/>
<path d="M47.8661 23.5758L51.3915 10.1185L56.0949 9.62412L55.7165 11.0688C56.0706 10.8061 56.4821 10.5287 56.9509 10.2366C57.4427 9.92476 57.9436 9.64663 58.4534 9.40225C58.9632 9.15788 59.4268 8.98773 59.8443 8.89182L58.7018 13.2527C58.3074 13.3289 57.8623 13.4624 57.3665 13.6533C56.8707 13.8441 56.3885 14.0509 55.9201 14.2736C55.4699 14.4944 55.0703 14.6925 54.7212 14.8679L52.5695 23.0814L47.8661 23.5758Z" fill="#F4F6FF"/>
<path d="M61.7362 22.4302C60.1776 22.594 59.1066 22.3596 58.5234 21.7271C57.9401 21.0946 57.8448 20.0293 58.2373 18.5311C58.5176 17.4609 58.9342 16.6192 59.4872 16.0061C60.0585 15.391 60.7687 14.9261 61.6179 14.6114C62.4672 14.2966 63.4489 14.0547 64.5631 13.8855L67.3902 13.4063L67.5444 12.8177C67.6612 12.3718 67.5963 12.0751 67.3496 11.9275C67.1213 11.7781 66.7504 11.7303 66.237 11.7843C65.6869 11.8421 65.0588 11.9255 64.3526 12.0344C63.6465 12.1433 62.9563 12.2592 62.2822 12.3821C61.608 12.505 61.0164 12.6192 60.5073 12.7247L61.2038 9.55547C61.75 9.37665 62.3878 9.1882 63.1173 8.99011C63.8651 8.79009 64.6335 8.61394 65.4223 8.46165C66.2158 8.29152 66.9518 8.17081 67.6303 8.0995C68.8589 7.97037 69.8782 7.99332 70.6883 8.16835C71.5167 8.34146 72.0737 8.73388 72.3592 9.34563C72.6631 9.95546 72.6585 10.8579 72.3454 12.0529L70.8596 17.7247C70.8725 17.8795 70.9567 18.0007 71.112 18.0885C71.2857 18.1743 71.4778 18.2235 71.6886 18.236L70.814 21.2679C70.3599 21.3677 69.883 21.4525 69.3832 21.5223C68.8788 21.6101 68.4937 21.6505 68.228 21.6438C67.6826 21.6837 67.2498 21.6338 66.9298 21.494C66.6145 21.3364 66.3977 21.177 66.2794 21.016C65.9716 21.1698 65.5675 21.351 65.067 21.5597C64.5712 21.7506 64.0342 21.9284 63.4561 22.0933C62.878 22.2581 62.3047 22.3704 61.7362 22.4302ZM63.8015 19.039C64.0766 19.01 64.3495 18.9553 64.6202 18.8749C64.9139 18.7746 65.1917 18.6674 65.4534 18.5531C65.7335 18.437 65.9562 18.3355 66.1216 18.2487L66.6964 16.0549L64.6394 16.4532C64.19 16.5352 63.8249 16.7036 63.5441 16.9586C63.2863 17.1938 63.106 17.5077 63.0032 17.9C62.9004 18.2924 62.9103 18.5949 63.033 18.8075C63.1603 19.0023 63.4165 19.0794 63.8015 19.039Z" fill="#F4F6FF"/>
<path d="M74.5033 20.7761L75.1407 7.62233L80.1741 7.09329L79.4183 16.513L80.0234 16.4494L84.2999 6.65965L89.0584 6.15952L82.6449 19.9204L74.5033 20.7761Z" fill="#F4F6FF"/>
<path d="M92.9692 19.1474C91.3555 19.317 90.135 19.2112 89.3077 18.8298C88.485 18.4306 87.9959 17.7449 87.8405 16.7725C87.7034 15.7983 87.8382 14.5353 88.2447 12.9835C88.6699 11.3605 89.261 9.9888 90.0181 8.86852C90.7936 7.74633 91.7465 6.86565 92.8769 6.2265C94.0072 5.58734 95.3334 5.18778 96.8554 5.02782C99.0375 4.79847 100.548 5.12539 101.386 6.00857C102.243 6.88982 102.389 8.40953 101.824 10.5677L101.015 12.8382L92.6807 13.7141C92.5121 14.4256 92.537 14.9434 92.7553 15.2673C92.9782 15.5734 93.4748 15.686 94.2449 15.6051C94.8317 15.5434 95.485 15.4661 96.2048 15.3731C96.9476 15.2603 97.6813 15.1485 98.4057 15.0377C99.1486 14.9249 99.7722 14.8247 100.277 14.737L99.5807 17.8021C99.0805 17.9414 98.4497 18.1031 97.6882 18.2872C96.9267 18.4713 96.1332 18.6414 95.3077 18.7976C94.4822 18.9537 93.7027 19.0703 92.9692 19.1474ZM93.3611 11.0148L97.2118 10.6101C97.4501 9.70047 97.4693 9.08271 97.2694 8.75683C97.0741 8.4131 96.6464 8.27594 95.9863 8.34532C95.3078 8.41663 94.7613 8.66486 94.3468 9.09002C93.9369 9.49734 93.6084 10.1389 93.3611 11.0148Z" fill="#F4F6FF"/>
</svg>
